name C:\Users\r0593348\3dpredictsim\Results\Batchsim_tmt_linear_v2\Pog_s1_tmt_bCst_d02_k500_ig24.mot
datacolumns 128
datarows 4
range 1.60826961 1.64043500
endheader
time	pelvis_tilt	pelvis_list	pelvis_rotation	pelvis_tx	pelvis_ty	pelvis_tz	hip_flexion_l	hip_adduction_l	hip_rotation_l	hip_flexion_r	hip_adduction_r	hip_rotation_r	knee_angle_l	knee_angle_r	ankle_angle_l	ankle_angle_r	subtalar_angle_l	subtalar_angle_r	tmt_angle_l	tmt_angle_r	mtp_angle_l	mtp_angle_r	lumbar_extension	lumbar_bending	lumbar_rotation	arm_flex_l	arm_add_l	arm_rot_l	arm_flex_r	arm_add_r	arm_rot_r	elbow_flex_l	elbow_flex_r	pro_sup_l	pro_sup_r	glut_med1_l/activation	glut_med2_l/activation	glut_med3_l/activation	glut_min1_l/activation	glut_min2_l/activation	glut_min3_l/activation	semimem_l/activation	semiten_l/activation	bifemlh_l/activation	bifemsh_l/activation	sar_l/activation	add_long_l/activation	add_brev_l/activation	add_mag1_l/activation	add_mag2_l/activation	add_mag3_l/activation	tfl_l/activation	pect_l/activation	grac_l/activation	glut_max1_l/activation	glut_max2_l/activation	glut_max3_l/activation	iliacus_l/activation	psoas_l/activation	quad_fem_l/activation	gem_l/activation	peri_l/activation	rect_fem_l/activation	vas_med_l/activation	vas_int_l/activation	vas_lat_l/activation	med_gas_l/activation	lat_gas_l/activation	soleus_l/activation	tib_post_l/activation	flex_dig_l/activation	flex_hal_l/activation	tib_ant_l/activation	per_brev_l/activation	per_long_l/activation	per_tert_l/activation	ext_dig_l/activation	ext_hal_l/activation	ercspn_l/activation	intobl_l/activation	extobl_l/activation	glut_med1_r/activation	glut_med2_r/activation	glut_med3_r/activation	glut_min1_r/activation	glut_min2_r/activation	glut_min3_r/activation	semimem_r/activation	semiten_r/activation	bifemlh_r/activation	bifemsh_r/activation	sar_r/activation	add_long_r/activation	add_brev_r/activation	add_mag1_r/activation	add_mag2_r/activation	add_mag3_r/activation	tfl_r/activation	pect_r/activation	grac_r/activation	glut_max1_r/activation	glut_max2_r/activation	glut_max3_r/activation	iliacus_r/activation	psoas_r/activation	quad_fem_r/activation	gem_r/activation	peri_r/activation	rect_fem_r/activation	vas_med_r/activation	vas_int_r/activation	vas_lat_r/activation	med_gas_r/activation	lat_gas_r/activation	soleus_r/activation	tib_post_r/activation	flex_dig_r/activation	flex_hal_r/activation	tib_ant_r/activation	per_brev_r/activation	per_long_r/activation	per_tert_r/activation	ext_dig_r/activation	ext_hal_r/activation	ercspn_r/activation	intobl_r/activation	extobl_r/activation	
          1.60826961	         -2.91445947	         -1.11921187	         -4.76164540	          2.01033701	          0.87143795	          0.00221382	         27.16995353	         -0.48527653	         -1.46056920	        -17.42794182	          1.51430138	          6.63152160	         -8.52614065	         -6.66485205	          6.39192016	         -8.80512819	          3.94951670	          8.89170044	          0.06967719	          2.10176624	         -0.09433331	         26.24981582	          0.61131900	          3.12900011	          1.61141529	         -8.64304892	        -13.44971110	         15.48729963	          4.42356722	        -13.48007629	         14.08543268	         15.72590769	         24.11790386	         86.51662706	         86.51662706	          0.11732068	          0.05000078	          0.05898146	          0.05000011	          0.05000019	          0.05000443	          0.05893481	          0.05893482	          0.05893483	          0.05000045	          0.05000078	          0.05000039	          0.06126619	          0.12649004	          0.13578067	          0.11755107	          0.05000149	          0.05000637	          0.05893365	          0.06946623	          0.10719725	          0.12415512	          0.05000009	          0.05000009	          0.15936834	          0.05000322	          0.06684828	          0.05000020	          0.07966634	          0.11278389	          0.05002329	          0.05893481	          0.05893480	          0.05893482	          0.05000028	          0.05000287	          0.05893352	          0.47045964	          0.27282115	          0.17033409	          0.21715849	          0.50111609	          0.24998412	          0.05000011	          0.13408559	          0.13183716	          0.30062478	          0.08692068	          0.07671252	          0.27214939	          0.15806640	          0.08890305	          0.05000049	          0.05000009	          0.05000007	          0.05000011	          0.08731597	          0.07339964	          0.05000025	          0.05000032	          0.05000084	          0.05000037	          0.21833906	          0.05001535	          0.05000042	          0.05000131	          0.05000085	          0.05000074	          0.30965086	          0.56923202	          0.05000013	          0.05000031	          0.06500824	          0.22198111	          0.09167698	          0.08627158	          0.08302088	          0.17196667	          0.24576851	          0.20258626	          0.18705975	          0.19044416	          0.24262041	          0.05000000	          0.09560191	          0.15667245	          0.05000007	          0.05000002	          0.05000007	          0.05000000	          0.05000001	          0.05000003	
          1.61899141	         -2.89493055	         -1.15503848	         -4.90692093	          2.02717180	          0.87022083	          0.00206254	         26.62460048	         -0.30466986	         -1.24470478	        -17.15342103	          1.38782658	          6.36608034	         -8.65794880	         -8.93708650	          5.74893096	         -9.47928834	          3.52386807	          9.97178652	          0.08159852	          1.90302034	         -0.07807828	         27.00634630	          0.82996026	          2.92848543	          1.66288132	         -9.78690393	        -13.45247118	         15.35210439	          4.15645030	        -13.51144034	         14.31203833	         15.75525157	         24.96525499	         86.51662706	         86.51662706	          0.09953427	          0.05000067	          0.05003964	          0.05886792	          0.05000213	          0.05000032	          0.05000001	          0.05000004	          0.05000002	          0.05000003	          0.05000071	          0.05073081	          0.05197819	          0.21640260	          0.20307212	          0.12741456	          0.05000019	          0.05000111	          0.05000012	          0.05893495	          0.09094596	          0.15281752	          0.05000022	          0.05000027	          0.30376113	          0.11377842	          0.16044438	          0.08187835	          0.28661971	          0.30154629	          0.23643202	          0.05000000	          0.05000000	          0.05000000	          0.05000005	          0.05000090	          0.05000019	          0.56804308	          0.30130294	          0.18126944	          0.44010537	          0.55685151	          0.28834105	          0.05000001	          0.11375751	          0.11184995	          0.25504851	          0.07374306	          0.06508253	          0.23089017	          0.13410273	          0.07542490	          0.05000075	          0.05000009	          0.05000011	          0.05000008	          0.07407851	          0.14252449	          0.17928717	          0.11587521	          0.05000298	          0.05000055	          0.18523774	          0.08147846	          0.05000144	          0.05000088	          0.05000063	          0.05000069	          0.26270617	          0.48293348	          0.05740615	          0.05893516	          0.05893482	          0.18832761	          0.13408492	          0.13408563	          0.10820474	          0.14589562	          0.20850872	          0.17187312	          0.15870054	          0.16157196	          0.20583794	          0.05000000	          0.08110821	          0.13292059	          0.05000006	          0.05000005	          0.05000006	          0.05000016	          0.08035263	          0.06524477	
          1.62971321	         -2.86930154	         -1.17409036	         -5.03023859	          2.04422698	          0.86883119	          0.00192100	         25.95214105	         -0.15788022	         -0.98841161	        -16.78271741	          1.25484807	          6.08994677	         -9.25981774	        -11.39297784	          5.06679215	        -10.08586618	          3.07735477	         11.01739826	         -0.06381297	          1.61462421	         -0.13140343	         27.30504749	          1.06147746	          2.69905334	          1.70391213	        -10.93207975	        -13.46586020	         15.27788265	          3.82843856	        -13.54806021	         14.48715737	         15.77611506	         25.81443702	         86.51662706	         86.51662706	          0.27646065	          0.18872003	          0.23889159	          0.05000015	          0.05000016	          0.25556425	          0.08128668	          0.05000029	          0.08067160	          0.05000006	          0.05000030	          0.06946633	          0.08786197	          0.18359491	          0.17228558	          0.13245467	          0.05000045	          0.06602740	          0.07231999	          0.05000024	          0.07715819	          0.12964967	          0.05612945	          0.05000121	          0.25770936	          0.09652907	          0.19669293	          0.06946516	          0.24316667	          0.25583030	          0.20058769	          0.05893480	          0.05893482	          0.05893481	          0.05071043	          0.05893486	          0.05893485	          0.48192479	          0.27530451	          0.15378818	          0.37338313	          0.58994809	          0.24462707	          0.05000000	          0.09651128	          0.09489291	          0.25929196	          0.06256323	          0.05521570	          0.19588610	          0.11377207	          0.06399011	          0.05000068	          0.05000012	          0.05000018	          0.05000003	          0.06284791	          0.14330305	          0.33616982	          0.09831112	          0.05893780	          0.12974247	          0.15715476	          0.06912627	          0.05000031	          0.05005640	          0.05893250	          0.05893458	          0.22287855	          0.42874132	          0.05000072	          0.05000052	          0.05000005	          0.15977615	          0.11375698	          0.11375758	          0.09180036	          0.12377708	          0.17689770	          0.14581625	          0.13464072	          0.13707686	          0.17463187	          0.05344405	          0.07450327	          0.14316345	          0.05000013	          0.16891069	          0.05000280	          0.05000005	          0.06817075	          0.06316947	
          1.64043500	         -2.84059186	         -1.17804427	         -5.12979835	          2.06128758	          0.86725434	          0.00178113	         25.15063436	         -0.02187478	         -0.71392391	        -16.31175831	          1.12125124	          5.80689851	         -9.85318890	        -14.01835740	          4.49873345	        -10.50371877	          2.60522423	         11.98977772	         -0.00932416	          1.23632782	         -0.15663162	         26.87499274	          1.28588845	          2.44511292	          1.73430237	        -12.03440249	        -13.49037519	         15.29269558	          3.47581964	        -13.59095542	         14.62866749	         15.76306693	         26.65334226	         86.51662706	         86.51662706	          0.32944964	          0.32142291	          0.36304231	          0.17282405	          0.18299990	          0.21799029	          0.06896326	          0.09132693	          0.07065688	          0.08141005	          0.05000076	          0.05893491	          0.07454166	          0.15576103	          0.18643407	          0.16393226	          0.05000011	          0.05601750	          0.08187926	          0.21665822	          0.17208417	          0.17043021	          0.05000005	          0.05000005	          0.21863930	          0.08189490	          0.17002178	          0.05893388	          0.20630135	          0.21704511	          0.17017756	          0.05000001	          0.05000002	          0.05000000	          0.05000000	          0.05000007	          0.05000006	          0.61633293	          0.31066352	          0.15860000	          0.63458021	          0.64567465	          0.41374897	          0.05000007	          0.08187966	          0.08050665	          0.21998198	          0.05307833	          0.05000000	          0.16618913	          0.09652366	          0.05428890	          0.05003038	          0.05000037	          0.05000024	          0.05000033	          0.05893504	          0.17266405	          0.30844195	          0.08340691	          0.05000311	          0.11007299	          0.13332931	          0.08188441	          0.05000053	          0.05000020	          0.05000014	          0.05000017	          0.18908900	          0.37859173	          0.05000001	          0.05000011	          0.05000010	          0.13555325	          0.09651084	          0.09651134	          0.07788296	          0.10501183	          0.15007909	          0.12370974	          0.11422851	          0.11629538	          0.14815682	          0.09008904	          0.09651160	          0.12145915	          0.11307962	          0.22106157	          0.10847887	          0.08591162	          0.05783571	          0.05359265	
